<?xml version="1.0" encoding="UTF-8" standalone="no"?>
<!DOCTYPE svg PUBLIC "-//W3C//DTD SVG 1.1//EN" "http://www.w3.org/Graphics/SVG/1.1/DTD/svg11.dtd">
<svg width="100%" height="100%" viewBox="0 0 1000 150" version="1.1" xmlns="http://www.w3.org/2000/svg" xmlns:xlink="http://www.w3.org/1999/xlink" xml:space="preserve" xmlns:serif="http://www.serif.com/" style="fill-rule:evenodd;clip-rule:evenodd;stroke-linejoin:round;stroke-miterlimit:2;">
    <g transform="matrix(1,0,0,1,6.20666,-25)">
        <g transform="matrix(1.09358,0,0,1,529.425,-1.42109e-14)">
            <path d="M46.35,101.5L393.048,100L46.35,98.5L44.978,98.5L44.978,101.5L46.35,101.5Z"/>
        </g>
        <g transform="matrix(-1.09358,0,0,1,458.161,-1.42109e-14)">
            <path d="M46.35,98.5L393.048,100L46.35,101.5L44.978,101.5L44.978,98.5L46.35,98.5Z"/>
        </g>
        <g id="chocolate-box-svgrepo-com.svg" transform="matrix(0.151057,0,0,0.151057,493.793,100)">
            <g transform="matrix(1,0,0,1,-256,-256)">
                <g>
                    <g>
                        <path d="M512,156.777C512,118.564 497.629,82.246 471.534,54.513C468.541,51.332 463.537,51.18 460.358,54.174C460.304,54.225 460.258,54.28 460.205,54.333C457.181,57.339 457.076,62.224 460.017,65.35C483.274,90.066 496.109,122.423 496.182,156.486L408.028,156.486C407.637,156.427 407.24,156.386 406.833,156.386C406.426,156.386 406.029,156.426 405.638,156.486L272.551,156.486C268.328,123.851 240.54,98.561 206.973,98.561C186.658,98.561 168.461,107.829 156.316,122.375L156.316,23.819C188.744,25.723 218.978,39.309 242.152,62.574L250.396,70.863C251.879,72.355 253.897,73.194 256.001,73.194C258.105,73.194 260.123,72.355 261.606,70.863L269.846,62.578C294.888,37.429 328.179,23.578 363.59,23.578C389.622,23.578 414.754,31.096 436.267,45.316C437.268,45.979 438.265,46.656 439.249,47.347C442.764,49.811 447.58,49.01 450.123,45.59C450.167,45.53 450.218,45.475 450.261,45.414C452.768,41.838 451.902,36.909 448.327,34.403C447.224,33.63 446.111,32.872 444.989,32.129C420.88,16.192 392.733,7.768 363.59,7.768C323.944,7.768 286.672,23.271 258.64,51.426L256.002,54.079L253.358,51.422C225.317,23.268 188.046,7.765 148.41,7.765C108.763,7.765 71.489,23.268 43.458,51.419C15.434,79.554 0,116.971 0,156.777C0,157.377 0.015,157.973 0.022,158.572C0.014,158.714 0,158.857 0,159.002L0,200.348C0,200.464 0.003,200.581 0.007,200.697C0.218,240.188 15.641,277.294 43.453,305.217L138.455,400.716C141.534,403.811 146.54,403.823 149.635,400.746C152.73,397.666 152.744,392.661 149.665,389.566L54.658,294.063C36.942,276.276 24.857,254.316 19.299,230.387C25.812,241.862 33.899,252.533 43.451,262.124L231.161,450.816C237.805,457.473 246.625,461.14 255.999,461.14C265.372,461.14 274.192,457.473 280.842,450.806L334.919,396.447L334.919,417.121L269.64,482.742C265.985,486.405 261.141,488.423 256,488.423C250.857,488.423 246.01,486.405 242.364,482.751L171.689,411.706C168.608,408.608 163.602,408.597 160.509,411.676L160.509,411.677C157.414,414.757 157.4,419.761 160.479,422.857L231.163,493.912C237.807,500.569 246.627,504.236 256.001,504.236C265.374,504.236 274.194,500.57 280.844,493.902L343.412,431.006C345.191,431.804 347.156,432.257 349.228,432.257L464.443,432.257C472.331,432.257 478.75,425.818 478.75,417.905L478.75,293.872C500.105,267.591 511.807,235.041 511.993,200.698C511.997,200.582 512,200.465 512,200.349L512,159.003C512,158.858 511.986,158.715 511.978,158.572C511.985,157.973 512,157.376 512,156.777ZM206.973,114.37C231.81,114.37 252.491,132.601 256.571,156.484L183.458,156.484C182.87,146.839 174.858,139.165 165.068,139.165L163.736,139.165C172.53,124.33 188.617,114.37 206.973,114.37ZM165.067,154.977C166.495,154.977 167.702,156.184 167.702,157.612L167.702,172.623C167.702,174.051 166.495,175.258 165.067,175.258L133.662,175.258C132.234,175.258 131.027,174.051 131.027,172.623L131.027,157.612C131.027,156.184 132.234,154.977 133.662,154.977L165.067,154.977ZM115.215,172.296L115.215,172.624C115.215,182.795 123.491,191.071 133.662,191.071L134.995,191.071C126.199,205.908 110.112,215.867 91.756,215.867C66.415,215.867 45.399,196.891 41.927,172.296L115.215,172.296ZM42.16,156.484C46.239,132.602 66.919,114.37 91.757,114.37C110.113,114.37 126.199,124.329 134.995,139.164L133.663,139.164C123.872,139.164 115.861,146.837 115.273,156.483L42.16,156.483L42.16,156.484ZM54.661,62.577C77.833,39.309 108.067,25.723 140.505,23.818L140.505,120.176C128.404,106.898 111.033,98.558 91.758,98.558C58.191,98.558 30.404,123.849 26.181,156.483L15.817,156.483C15.891,120.999 29.677,87.659 54.661,62.577ZM140.503,337.261L54.659,250.968C33.288,229.511 20.115,202.01 16.705,172.296L25.994,172.296C29.563,205.634 57.691,231.679 91.756,231.679C111.031,231.679 128.402,223.339 140.503,210.061L140.503,337.261ZM339.096,256.946C336.404,259.654 334.921,263.253 334.921,267.079L334.921,374.027L269.642,439.648C265.987,443.311 261.143,445.329 256.002,445.329C250.859,445.329 246.012,443.311 242.366,439.657L155.787,352.626C156.123,351.748 156.316,350.798 156.316,349.801L156.316,207.991C165.06,218.459 177.029,226.236 190.993,229.723C191.636,229.883 192.281,229.961 192.915,229.961C196.458,229.961 199.682,227.562 200.58,223.968C201.638,219.73 199.062,215.439 194.825,214.382C181.382,211.026 170.367,202.433 163.678,191.071L165.068,191.071C175.239,191.071 183.515,182.795 183.515,172.624L183.515,172.296L256.81,172.296C254.137,191.477 240.88,207.568 222.134,213.527C217.973,214.85 215.672,219.296 216.995,223.457C218.318,227.618 222.764,229.921 226.925,228.596C252.267,220.539 269.972,198.415 272.737,172.296L398.93,172.296L398.93,197.157C398.137,197.686 397.391,198.298 396.705,198.989L339.096,256.946ZM462.939,416.445L350.733,416.445L350.733,267.668L406.835,211.226L462.939,267.669L462.939,416.445ZM478.701,266.072C478.464,262.625 477.027,259.412 474.571,256.942L473.988,256.356C481.205,248.309 487.463,239.602 492.7,230.374C489.786,242.919 485.078,254.924 478.701,266.072ZM462.816,245.117L416.964,198.987C416.277,198.297 415.531,197.686 414.741,197.157L414.741,172.295L495.293,172.295C492.186,199.367 480.961,224.604 462.816,245.117Z" style="fill-rule:nonzero;"/>
                    </g>
                </g>
                <g>
                    <g>
                        <path d="M442.412,315.521C437.074,310.069 429.964,307.066 422.395,307.066C416.779,307.066 411.415,308.719 406.836,311.803C402.261,308.72 396.896,307.066 391.275,307.066C383.704,307.066 376.595,310.069 371.255,315.525C365.963,320.936 363.051,328.114 363.051,335.738C363.051,343.362 365.966,350.539 371.254,355.947L398.39,383.702C400.599,385.969 403.677,387.271 406.835,387.271C409.989,387.271 413.066,385.972 415.269,383.712L442.416,355.947C447.707,350.537 450.619,343.361 450.619,335.737C450.619,328.115 447.706,320.937 442.412,315.521ZM431.11,344.891L406.834,369.72L382.558,344.89C380.174,342.452 378.861,339.202 378.861,335.736C378.861,332.269 380.174,329.016 382.556,326.581C384.895,324.191 387.99,322.876 391.275,322.876C394.56,322.876 397.655,324.191 399.987,326.576L401.18,327.797C402.667,329.318 404.706,330.177 406.834,330.177L406.837,330.177C408.967,330.176 411.006,329.317 412.492,327.792L413.673,326.582C416.013,324.192 419.109,322.877 422.394,322.877C425.678,322.877 428.775,324.193 431.11,326.577C433.492,329.018 434.806,332.271 434.806,335.738C434.807,339.203 433.495,342.454 431.11,344.891Z" style="fill-rule:nonzero;"/>
                    </g>
                </g>
                <g>
                    <g>
                        <path d="M406.835,233.163C394.586,233.163 384.621,243.172 384.621,255.475C384.621,267.78 394.586,277.791 406.835,277.791C419.084,277.791 429.049,267.78 429.049,255.475C429.048,243.172 419.084,233.163 406.835,233.163ZM406.835,261.979C403.305,261.979 400.433,259.061 400.433,255.475C400.433,251.891 403.305,248.975 406.835,248.975C410.365,248.975 413.237,251.891 413.237,255.475C413.237,259.061 410.364,261.979 406.835,261.979Z" style="fill-rule:nonzero;"/>
                    </g>
                </g>
            </g>
        </g>
    </g>
</svg>
